<svg width="25" height="21" viewBox="0 0 25 21" fill="none" xmlns="http://www.w3.org/2000/svg">
<path fill-rule="evenodd" clip-rule="evenodd" d="M1.71862 8.91906C8.42949 5.99524 12.9045 4.06768 15.1435 3.13638C21.5365 0.477321 22.8649 0.0154151 23.7307 0.000162625C23.9212 -0.00319198 24.347 0.0440028 24.6228 0.267804C24.8557 0.456777 24.9197 0.712053 24.9504 0.891221C24.9811 1.07039 25.0192 1.47854 24.9889 1.79745C24.6424 5.4375 23.1434 14.2709 22.3808 18.3478C22.0581 20.0729 21.4227 20.6514 20.8076 20.708C19.4707 20.831 18.4556 19.8245 17.1608 18.9757C15.1348 17.6476 13.9901 16.8209 12.0235 15.5249C9.75066 14.0271 11.224 13.2039 12.5193 11.8586C12.8583 11.5065 18.7484 6.14901 18.8624 5.663C18.8767 5.60221 18.8899 5.37564 18.7553 5.256C18.6207 5.13636 18.422 5.17728 18.2787 5.20981C18.0754 5.25594 14.8388 7.39527 8.56858 11.6278C7.64986 12.2587 6.8177 12.5661 6.07212 12.55C5.25018 12.5322 3.6691 12.0852 2.49372 11.7031C1.05207 11.2345 -0.0937162 10.9868 0.00605648 10.1909C0.0580243 9.77636 0.628878 9.35242 1.71862 8.91906Z" fill="currentColor"/>
</svg>
