<svg width="158" height="40" viewBox="0 0 158 40" fill="none" xmlns="http://www.w3.org/2000/svg">
<path d="M38.8734 0H28.0985C27.5944 0 27.1855 0.414659 27.1855 0.926024C27.1855 1.43739 27.5944 1.85205 28.0985 1.85205H38.276V12.1749C38.276 12.6863 38.6849 13.101 39.189 13.101C39.6932 13.101 40.102 12.6863 40.102 12.1749V1.24581C40.102 0.558618 39.5509 0 38.8737 0H38.8734Z" fill="url(#paint0_linear_0_761)"/>
<path d="M1.57875 13.1006C2.08292 13.1006 2.49174 12.6859 2.49174 12.1746V1.85168H12.6689C13.173 1.85168 13.5819 1.43702 13.5819 0.925657C13.5819 0.414293 13.173 0 12.6689 0H1.89404C1.21688 0 0.665771 0.558984 0.665771 1.24581V12.1746C0.665771 12.6859 1.07459 13.1006 1.57875 13.1006Z" fill="url(#paint1_linear_0_761)"/>
<path d="M39.189 26.8989C38.6849 26.8989 38.276 27.3136 38.276 27.8249V38.1478H28.0985C27.5944 38.1478 27.1855 38.5625 27.1855 39.0739C27.1855 39.5852 27.5944 39.9999 28.0985 39.9999H38.8734C39.5509 39.9999 40.1016 39.4409 40.1016 38.7541V27.8253C40.1016 27.314 39.6928 26.8993 39.1887 26.8993L39.189 26.8989Z" fill="url(#paint2_linear_0_761)"/>
<path d="M12.6688 38.1478H2.49125V27.8249C2.49125 27.3136 2.08243 26.8989 1.57827 26.8989C1.0741 26.8989 0.665283 27.3136 0.665283 27.8249V38.7537C0.665283 39.4409 1.21639 39.9995 1.89355 39.9995H12.6684C13.1726 39.9995 13.5814 39.5849 13.5814 39.0735C13.5814 38.5621 13.1726 38.1475 12.6684 38.1475L12.6688 38.1478Z" fill="url(#paint3_linear_0_761)"/>
<path d="M53.9688 29.1892C53.9688 28.2736 53.9688 27.3855 53.9688 26.5252C53.9688 25.6648 53.9688 24.7097 53.9688 23.6598V18.462C53.9688 17.3806 53.9688 16.4018 53.9688 15.5256C53.9688 14.6494 53.9688 13.7456 53.9688 12.8142L55.2357 15.2059H53.069C52.1612 15.2059 51.3521 15.2059 50.6417 15.2059C49.9392 15.2059 49.2722 15.2059 48.6407 15.2059V12.3051H62.5885V15.2059C61.957 15.2059 61.29 15.2059 60.5875 15.2059C59.885 15.2059 59.0759 15.2059 58.1603 15.2059H55.9935L57.2722 12.8142C57.2722 13.7456 57.2722 14.6494 57.2722 15.5256C57.2722 16.4018 57.2722 17.3806 57.2722 18.462V23.6598C57.2722 24.7097 57.2722 25.6648 57.2722 26.5252C57.2722 27.3855 57.2722 28.2736 57.2722 29.1892H53.9688ZM72.3606 29.4852C70.8687 29.4852 69.5702 29.2524 68.4651 28.7866C67.3679 28.3209 66.4602 27.6816 65.7419 26.8685C65.0315 26.0555 64.4987 25.1241 64.1434 24.0742C63.7961 23.0244 63.6225 21.9154 63.6225 20.7471C63.6225 19.1132 63.9501 17.6332 64.6052 16.307C65.2604 14.973 66.2273 13.9193 67.5061 13.1457C68.7927 12.3643 70.3793 11.9735 72.2658 11.9735C73.7025 11.9735 74.9615 12.1985 76.0429 12.6484C77.1243 13.0983 78.0281 13.7259 78.7543 14.531C79.4805 15.3361 80.0251 16.2676 80.3882 17.3253C80.7513 18.383 80.9329 19.5197 80.9329 20.7353C80.9329 22.4087 80.6014 23.9045 79.9383 25.2227C79.2753 26.5409 78.3044 27.5829 77.0256 28.3486C75.7469 29.1063 74.1919 29.4852 72.3606 29.4852ZM72.3014 26.7264C73.1854 26.7264 73.9511 26.5686 74.5984 26.2528C75.2456 25.9292 75.7824 25.4872 76.2086 24.9267C76.6428 24.3584 76.9625 23.7151 77.1677 22.9968C77.3808 22.2785 77.4874 21.5246 77.4874 20.7353C77.4874 19.8907 77.3729 19.1053 77.144 18.3791C76.9151 17.6529 76.5796 17.0175 76.1376 16.4728C75.7035 15.9203 75.1627 15.494 74.5155 15.1941C73.8761 14.8862 73.1381 14.7323 72.3014 14.7323C71.441 14.7323 70.6832 14.8902 70.028 15.2059C69.3729 15.5216 68.8243 15.9597 68.3822 16.5202C67.9481 17.0806 67.6205 17.7239 67.3995 18.4501C67.1785 19.1684 67.068 19.9302 67.068 20.7353C67.068 21.5404 67.1745 22.3021 67.3877 23.0205C67.6008 23.7388 67.9244 24.3781 68.3586 24.9386C68.7927 25.499 69.3374 25.9371 69.9925 26.2528C70.6477 26.5686 71.4173 26.7264 72.3014 26.7264ZM83.7729 29.1892C83.7729 28.2736 83.7729 27.3855 83.7729 26.5252C83.7729 25.6648 83.7729 24.7097 83.7729 23.6598V17.9528C83.7729 16.8714 83.7729 15.8926 83.7729 15.0165C83.7729 14.1403 83.7729 13.2365 83.7729 12.3051H86.6856C87.5538 13.5443 88.3748 14.7244 89.1483 15.8453C89.9298 16.9662 90.7073 18.0831 91.4809 19.1961L94.5238 23.5651H94.7724V17.9528C94.7724 16.8714 94.7724 15.8926 94.7724 15.0165C94.7724 14.1403 94.7724 13.2365 94.7724 12.3051H97.8983C97.8983 13.2365 97.8983 14.1403 97.8983 15.0165C97.8983 15.8926 97.8983 16.8714 97.8983 17.9528V23.6598C97.8983 24.7097 97.8983 25.6648 97.8983 26.5252C97.8983 27.3855 97.8983 28.2736 97.8983 29.1892H95.0211C94.3107 28.1631 93.5647 27.0935 92.7833 25.9805C92.0018 24.8596 91.1454 23.6322 90.214 22.2982L87.1355 17.8818H86.8869V23.6598C86.8869 24.7097 86.8869 25.6648 86.8869 26.5252C86.8869 27.3855 86.8869 28.2736 86.8869 29.1892H83.7729ZM112.342 29.1892C112.342 28.2736 112.342 27.3855 112.342 26.5252C112.342 25.6648 112.342 24.7097 112.342 23.6598V17.9528C112.342 16.8714 112.342 15.8926 112.342 15.0165C112.342 14.1403 112.342 13.2365 112.342 12.3051H115.669C115.669 13.2365 115.669 14.1403 115.669 15.0165C115.669 15.8926 115.669 16.8714 115.669 17.9528V23.6598C115.669 24.7097 115.669 25.6648 115.669 26.5252C115.669 27.3855 115.669 28.2736 115.669 29.1892H112.342ZM101.579 29.1892C101.579 28.2736 101.579 27.3855 101.579 26.5252C101.579 25.6648 101.579 24.7097 101.579 23.6598V17.9528C101.579 16.8714 101.579 15.8926 101.579 15.0165C101.579 14.1403 101.579 13.2365 101.579 12.3051H104.907C104.907 13.2365 104.907 14.1403 104.907 15.0165C104.907 15.8926 104.907 16.8714 104.907 17.9528V23.6598C104.907 24.7097 104.907 25.6648 104.907 26.5252C104.907 27.3855 104.907 28.2736 104.907 29.1892H101.579ZM103.936 22.0614V19.2789H113.384V22.0614H103.936ZM122.513 29.4852C121.305 29.4852 120.401 29.134 119.802 28.4314C119.21 27.721 118.914 26.6751 118.914 25.2938C118.914 24.7728 118.914 24.3189 118.914 23.9322C118.914 23.5454 118.914 23.1507 118.914 22.7481C118.914 21.9904 118.914 21.3155 118.914 20.7235C118.914 20.1314 118.914 19.571 118.914 19.0421C118.914 18.5133 118.914 17.9647 118.914 17.3963L121.921 17.3016C121.921 18.1462 121.921 18.9829 121.921 19.8118C121.921 20.6327 121.921 21.4931 121.921 22.3929V24.4294C121.921 25.203 122.051 25.7871 122.312 26.1818C122.58 26.5765 123.058 26.7738 123.744 26.7738C124.131 26.7738 124.486 26.6949 124.81 26.537C125.141 26.3712 125.441 26.1542 125.71 25.8858C125.978 25.6095 126.223 25.3017 126.444 24.9622V22.3929C126.444 21.4931 126.444 20.6485 126.444 19.8591C126.444 19.0619 126.444 18.241 126.444 17.3963H129.451C129.451 18.241 129.451 19.0777 129.451 19.9065C129.451 20.7274 129.451 21.6746 129.451 22.7481V24.0506C129.451 25.0293 129.451 25.9174 129.451 26.7146C129.451 27.5118 129.451 28.3367 129.451 29.1892H126.894L126.775 27.2356H126.503C126.243 27.6145 125.923 27.9776 125.544 28.3249C125.165 28.6643 124.723 28.9445 124.218 29.1655C123.713 29.3787 123.144 29.4852 122.513 29.4852ZM132.563 29.1892C132.563 28.3367 132.563 27.5118 132.563 26.7146C132.563 25.9174 132.563 25.0293 132.563 24.0506V22.8665C132.563 21.9746 132.563 21.0708 132.563 20.1551C132.563 19.2395 132.563 18.3199 132.563 17.3963L135.121 17.2424L135.239 19.3381H135.511C135.772 18.9593 136.091 18.6001 136.47 18.2607C136.857 17.9134 137.303 17.6332 137.808 17.42C138.321 17.199 138.906 17.0885 139.561 17.0885C140.768 17.0885 141.668 17.4437 142.26 18.1541C142.86 18.8566 143.16 19.8986 143.16 21.2799C143.16 21.793 143.16 22.2666 143.16 22.7008C143.16 23.127 143.16 23.5769 143.16 24.0506C143.16 25.0057 143.16 25.8897 143.16 26.7028C143.16 27.5079 143.16 28.3367 143.16 29.1892H140.153C140.153 28.3367 140.153 27.5118 140.153 26.7146C140.153 25.9174 140.153 25.0807 140.153 24.2045V22.2035C140.153 21.4299 140.018 20.8458 139.75 20.4511C139.49 20.0565 139.016 19.8591 138.329 19.8591C137.927 19.8591 137.556 19.942 137.216 20.1078C136.885 20.2656 136.581 20.4827 136.305 20.759C136.036 21.0273 135.792 21.3312 135.571 21.6707V24.2045C135.571 25.1043 135.571 25.9489 135.571 26.7383C135.571 27.5197 135.571 28.3367 135.571 29.1892H132.563ZM151.062 29.4852C150.217 29.4852 149.499 29.355 148.907 29.0945C148.315 28.8261 147.861 28.4038 147.545 27.8276C147.229 27.2514 147.071 26.5015 147.071 25.5779C147.071 25.0017 147.071 24.4215 147.071 23.8374C147.071 23.2533 147.071 22.6574 147.071 22.0496C147.071 21.4339 147.071 20.8063 147.071 20.167C147.071 19.5276 147.071 18.8645 147.071 18.1778C147.071 17.3174 147.071 16.5241 147.071 15.7979C147.071 15.0717 147.071 14.3297 147.071 13.572L150.043 13.0155C150.043 13.6154 150.043 14.1837 150.043 14.7205C150.043 15.2493 150.043 15.79 150.043 16.3426C150.043 16.8951 150.043 17.5069 150.043 18.1778V24.6781C150.043 25.4438 150.189 26.0239 150.481 26.4186C150.781 26.8054 151.255 26.9988 151.902 26.9988C152.171 26.9988 152.459 26.9514 152.767 26.8567C153.082 26.762 153.378 26.6159 153.655 26.4186L153.856 28.8932C153.659 29.0195 153.41 29.1261 153.11 29.2129C152.818 29.2997 152.494 29.3668 152.139 29.4142C151.784 29.4615 151.425 29.4852 151.062 29.4852ZM145.047 19.6815V17.3963H153.773V19.6815C153.015 19.6815 152.254 19.6815 151.488 19.6815C150.722 19.6815 149.98 19.6815 149.262 19.6815H147.948H145.047Z" fill="url(#paint4_linear_0_761)"/>
<path d="M28.3728 8.00024H12.3932C9.45514 8.00024 7.593 11.2148 9.07106 13.8135L18.9331 31.1514C19.5766 32.2835 21.1894 32.2835 21.833 31.1514L31.697 13.8135C33.1732 11.219 31.3109 8.00024 28.3748 8.00024H28.3728ZM18.9251 25.952L16.7773 21.7359L11.5949 12.3347C11.253 11.733 11.6753 10.9619 12.3912 10.9619H18.9231V25.9541L18.9251 25.952ZM29.1672 12.3327L23.9868 21.7379L21.839 25.952V10.9599H28.3708C29.0868 10.9599 29.509 11.7309 29.1672 12.3327Z" fill="white"/>
<mask id="mask0_0_761" style="mask-type:alpha" maskUnits="userSpaceOnUse" x="8" y="8" width="25" height="25">
<path d="M28.3731 8.00024H12.3935C9.45539 8.00024 7.59324 11.2148 9.07131 13.8135L18.9333 31.1514C19.5769 32.2835 21.1897 32.2835 21.8332 31.1514L31.6973 13.8135C33.1734 11.219 31.3112 8.00024 28.3751 8.00024H28.3731ZM18.9253 25.952L16.7775 21.7359L11.5951 12.3347C11.2533 11.733 11.6755 10.9619 12.3915 10.9619H18.9233V25.9541L18.9253 25.952ZM29.1674 12.3327L23.987 21.7379L21.8392 25.952V10.9599H28.3711C29.087 10.9599 29.5093 11.7309 29.1674 12.3327Z" fill="white"/>
</mask>
<g mask="url(#mask0_0_761)">
<rect x="3.86304" y="23.3516" width="31.1232" height="13.6217" fill="#31384F"/>
</g>
<rect x="0.665405" y="21.1895" width="39.4363" height="2.16218" rx="1.08109" fill="#0C8AFA"/>
<g clip-path="url(#clip0_0_761)">
<g filter="url(#filter0_f_0_761)">
<ellipse cx="22.7199" cy="19.3517" rx="5.946" ry="29.4057" transform="rotate(-90 22.7199 19.3517)" fill="#0C8AFA" fill-opacity="0.58"/>
</g>
</g>
<defs>
<filter id="filter0_f_0_761" x="-13.1077" y="6.98374" width="71.6552" height="24.7359" filterUnits="userSpaceOnUse" color-interpolation-filters="sRGB">
<feFlood flood-opacity="0" result="BackgroundImageFix"/>
<feBlend mode="normal" in="SourceGraphic" in2="BackgroundImageFix" result="shape"/>
<feGaussianBlur stdDeviation="3.21098" result="effect1_foregroundBlur_0_761"/>
</filter>
<linearGradient id="paint0_linear_0_761" x1="27.1855" y1="6.55048" x2="40.102" y2="6.55048" gradientUnits="userSpaceOnUse">
<stop stop-color="#7A89FE"/>
<stop offset="0.65299" stop-color="#7ACAFF"/>
<stop offset="1" stop-color="#FDFEFF"/>
</linearGradient>
<linearGradient id="paint1_linear_0_761" x1="0.665771" y1="6.5503" x2="13.5819" y2="6.5503" gradientUnits="userSpaceOnUse">
<stop stop-color="#7A89FE"/>
<stop offset="0.65299" stop-color="#7ACAFF"/>
<stop offset="1" stop-color="#FDFEFF"/>
</linearGradient>
<linearGradient id="paint2_linear_0_761" x1="27.1855" y1="33.4494" x2="40.1016" y2="33.4494" gradientUnits="userSpaceOnUse">
<stop stop-color="#7A89FE"/>
<stop offset="0.65299" stop-color="#7ACAFF"/>
<stop offset="1" stop-color="#FDFEFF"/>
</linearGradient>
<linearGradient id="paint3_linear_0_761" x1="0.665283" y1="33.4492" x2="13.5814" y2="33.4492" gradientUnits="userSpaceOnUse">
<stop stop-color="#7A89FE"/>
<stop offset="0.65299" stop-color="#7ACAFF"/>
<stop offset="1" stop-color="#FDFEFF"/>
</linearGradient>
<linearGradient id="paint4_linear_0_761" x1="47.9895" y1="19.6892" x2="157.987" y2="19.6892" gradientUnits="userSpaceOnUse">
<stop stop-color="#7A89FE"/>
<stop offset="0.65299" stop-color="#7ACAFF"/>
<stop offset="1" stop-color="#FDFEFF"/>
</linearGradient>
<clipPath id="clip0_0_761">
<rect width="39.437" height="15.7839" fill="white" transform="translate(0.665283 5.83789)"/>
</clipPath>
</defs>
</svg>
